<?xml version="1.0" encoding="iso-8859-1"?>
<!-- Uploaded to: SVG Repo, www.svgrepo.com, Generator: SVG Repo Mixer Tools -->
<svg height="800px" width="800px" version="1.1" id="Layer_1" xmlns="http://www.w3.org/2000/svg" xmlns:xlink="http://www.w3.org/1999/xlink" 
	 viewBox="0 0 506.603 506.603" xml:space="preserve">
<g transform="translate(0 -1004.36)" shape-rendering="auto" image-rendering="auto" color-rendering="auto" color-interpolation="sRGB">
	<g>
		<path style="fill:#3B322E;" d="M253.261,1120.814c-2.406,0.012-4.678,1.106-6.188,2.979l-85.333,106.271
			c-2.772,3.44-2.231,8.478,1.21,11.25c1.422,1.146,3.193,1.771,5.019,1.771h25.249l-63.312,73.729
			c-2.876,3.354-2.488,8.405,0.867,11.281c1.447,1.241,3.29,1.924,5.196,1.927h46.25l-73.583,83.313
			c-2.934,3.305-2.633,8.361,0.671,11.294c1.468,1.305,3.365,2.022,5.329,2.018h277.333c4.419,0.009,8.008-3.565,8.018-7.984
			c0.004-1.964-0.714-3.859-2.018-5.328l-73.584-83.313h46.251c4.419-0.006,7.995-3.594,7.989-8.013
			c-0.003-1.906-0.686-3.749-1.927-5.195l-63.312-73.729h25.25c4.419,0.01,8.01-3.563,8.02-7.98c0.005-1.833-0.621-3.613-1.771-5.04
			l-85.333-106.271C258.019,1121.893,255.702,1120.796,253.261,1120.814L253.261,1120.814z"/>
		<path style="fill:#5DA771;" d="M253.367,1141.585l68.646,85.5h-26c-4.419,0.007-7.996,3.594-7.99,8.012
			c0.003,1.906,0.686,3.749,1.927,5.197l63.312,73.729H306.68c-4.419-0.009-8.008,3.565-8.018,7.984
			c-0.004,1.964,0.714,3.859,2.018,5.328l73.583,83.313H132.43l73.584-83.313c2.934-3.305,2.633-8.361-0.671-11.294
			c-1.468-1.305-3.365-2.022-5.329-2.018H153.43l63.312-73.729c2.876-3.354,2.488-8.405-0.867-11.281
			c-1.447-1.241-3.289-1.924-5.195-1.927h-25.98L253.367,1141.585z"/>
		<g>
			<path style="fill:#3B322E;" d="M253.176,1413.231c-4.418,0.069-7.943,3.707-7.874,8.125v72.354
				c-0.062,4.418,3.469,8.051,7.887,8.113c4.418,0.063,8.051-3.469,8.113-7.887c0.001-0.075,0.001-0.151,0-0.227v-72.354
				c0.069-4.418-3.456-8.056-7.875-8.125C253.344,1413.23,253.26,1413.23,253.176,1413.231z"/>
			<path style="fill:#3B322E;" d="M8.114,1143.336c-4.418-0.063-8.051,3.469-8.113,7.887c-0.062,4.419,3.469,8.051,7.887,8.113
				c0.075,0.001,0.151,0.001,0.226,0h106.375c4.418,0.063,8.051-3.469,8.113-7.887c0.062-4.419-3.469-8.051-7.887-8.113
				c-0.075-0.001-0.151-0.001-0.226,0C114.489,1143.336,8.114,1143.336,8.114,1143.336z"/>
			<path style="fill:#3B322E;" d="M18.822,1122.023c-4.418-0.094-8.075,3.411-8.17,7.828c-0.029,1.342,0.281,2.669,0.899,3.859
				l8.813,17.626l-8.813,17.604c-1.994,3.945-0.413,8.759,3.531,10.753s8.759,0.413,10.753-3.531
				c0.009-0.018,0.019-0.037,0.028-0.055l10.604-21.208c1.123-2.249,1.123-4.896,0-7.146l-10.604-21.188
				C24.561,1123.844,21.838,1122.088,18.822,1122.023z"/>
			<path style="fill:#3B322E;" d="M103.552,1122.044c-2.923,0.141-5.536,1.867-6.813,4.499l-10.583,21.208
				c-1.123,2.249-1.123,4.896,0,7.146l10.583,21.208c1.994,3.945,6.809,5.525,10.754,3.531c3.923-1.984,5.512-6.76,3.559-10.698
				l-8.813-17.604l8.813-17.626c2.03-3.925,0.493-8.752-3.432-10.782C106.365,1122.28,104.962,1121.975,103.552,1122.044
				L103.552,1122.044z"/>
			<path style="fill:#3B322E;" d="M61.176,1090.023c-4.418,0.07-7.943,3.707-7.874,8.125v106.354
				c-0.062,4.418,3.469,8.051,7.887,8.113c4.418,0.063,8.051-3.469,8.113-7.887c0.001-0.076,0.001-0.151,0-0.227v-106.354
				c0.069-4.418-3.456-8.056-7.875-8.125C61.344,1090.021,61.26,1090.021,61.176,1090.023z"/>
			<path style="fill:#3B322E;" d="M82.531,1100.669c-1.255,0.012-2.49,0.318-3.604,0.896l-17.625,8.813l-17.626-8.813
				c-3.905-2.067-8.747-0.576-10.814,3.329c-2.067,3.906-0.576,8.747,3.329,10.814c0.112,0.059,0.225,0.115,0.339,0.169
				l21.187,10.605c2.255,1.13,4.912,1.13,7.167,0l21.187-10.605c3.98-1.919,5.652-6.701,3.733-10.681
				C88.461,1102.407,85.627,1100.644,82.531,1100.669L82.531,1100.669z"/>
			<path style="fill:#3B322E;" d="M61.01,1175.336c-1.144,0.038-2.267,0.322-3.292,0.832l-21.187,10.604
				c-3.948,1.987-5.539,6.798-3.552,10.747c1.981,3.938,6.773,5.532,10.719,3.566l17.604-8.813l17.625,8.813
				c3.905,2.067,8.747,0.576,10.814-3.329c2.067-3.906,0.576-8.747-3.329-10.814c-0.112-0.059-0.225-0.115-0.339-0.169
				l-21.187-10.604C63.684,1175.57,62.351,1175.284,61.01,1175.336z"/>
			<path style="fill:#3B322E;" d="M392.114,1143.336c-4.418-0.063-8.051,3.469-8.113,7.887c-0.063,4.419,3.469,8.051,7.887,8.113
				c0.075,0.001,0.151,0.001,0.226,0h106.375c4.418,0.063,8.051-3.469,8.113-7.887c0.063-4.419-3.469-8.051-7.887-8.113
				c-0.075-0.001-0.151-0.001-0.226,0H392.114L392.114,1143.336z"/>
			<path style="fill:#3B322E;" d="M402.822,1122.023c-4.418-0.094-8.075,3.411-8.17,7.828c-0.029,1.342,0.281,2.669,0.899,3.859
				l8.813,17.626l-8.813,17.604c-1.994,3.945-0.412,8.759,3.533,10.753c3.945,1.994,8.759,0.412,10.753-3.532
				c0.009-0.018,0.018-0.036,0.027-0.054l10.604-21.208c1.123-2.249,1.123-4.896,0-7.146l-10.604-21.188
				C408.561,1123.844,405.838,1122.088,402.822,1122.023L402.822,1122.023z"/>
			<path style="fill:#3B322E;" d="M487.552,1122.044c-2.923,0.141-5.536,1.867-6.813,4.499l-10.583,21.208
				c-1.123,2.249-1.123,4.896,0,7.146l10.583,21.208c1.994,3.945,6.808,5.527,10.753,3.533c3.924-1.983,5.513-6.76,3.56-10.699
				l-8.813-17.604l8.813-17.626c2.03-3.925,0.493-8.752-3.432-10.782C490.365,1122.28,488.962,1121.975,487.552,1122.044
				L487.552,1122.044z"/>
			<path style="fill:#3B322E;" d="M445.176,1090.023c-4.418,0.07-7.943,3.707-7.874,8.125v106.354
				c-0.062,4.418,3.469,8.051,7.887,8.113s8.051-3.469,8.113-7.887c0.001-0.076,0.001-0.151,0-0.227v-106.354
				c0.069-4.418-3.456-8.056-7.875-8.125C445.344,1090.021,445.26,1090.021,445.176,1090.023z"/>
			<path style="fill:#3B322E;" d="M466.531,1100.669c-1.255,0.012-2.49,0.318-3.604,0.896l-17.625,8.813l-17.626-8.813
				c-3.905-2.067-8.747-0.577-10.814,3.329c-2.067,3.906-0.577,8.747,3.329,10.814c0.112,0.059,0.225,0.115,0.34,0.169
				l21.187,10.605c2.255,1.13,4.912,1.13,7.167,0l21.187-10.605c3.98-1.919,5.652-6.701,3.733-10.681
				C472.461,1102.407,469.627,1100.644,466.531,1100.669L466.531,1100.669z"/>
			<path style="fill:#3B322E;" d="M445.01,1175.336c-1.144,0.038-2.267,0.322-3.292,0.832l-21.187,10.604
				c-3.949,1.986-5.541,6.797-3.555,10.745c1.981,3.94,6.776,5.535,10.722,3.567l17.604-8.813l17.625,8.813
				c3.905,2.067,8.747,0.577,10.814-3.329c2.067-3.906,0.577-8.747-3.329-10.814c-0.112-0.059-0.225-0.115-0.34-0.169
				l-21.187-10.604C447.684,1175.57,446.351,1175.284,445.01,1175.336L445.01,1175.336z"/>
		</g>
	</g>
	<path style="fill:#3B322E;" d="M252.684,1013.529c-2.988,0.259-5.581,2.167-6.716,4.944l-10.437,25.518l-26.132,1.081
		c-4.415,0.182-7.846,3.909-7.664,8.324c0.092,2.241,1.122,4.341,2.837,5.787l21.041,17.811l-7.038,25.188
		c-1.186,4.257,1.303,8.669,5.56,9.855c2.153,0.6,4.458,0.271,6.358-0.904l23.426-14.521l21.788,14.488
		c3.677,2.451,8.644,1.456,11.095-2.221c1.244-1.866,1.647-4.168,1.112-6.346l-6.572-26.781l20.506-16.23
		c3.464-2.743,4.047-7.776,1.304-11.24c-1.39-1.755-3.451-2.846-5.683-3.011l-27.499-2.023l-9.105-24.529
		C259.612,1015.346,256.266,1013.223,252.684,1013.529L252.684,1013.529z"/>
	<path style="fill:#F29F4A;" d="M253.014,1043.529l3.742,10.087c1.092,2.937,3.798,4.965,6.923,5.191l12.157,0.907l-8.442,6.693
		c-2.456,1.936-3.559,5.126-2.823,8.165l2.897,11.848l-8.951-5.968c-2.606-1.732-5.983-1.786-8.643-0.139l-10.377,6.41l2.911-10.373
		c0.839-3.015-0.156-6.243-2.548-8.261l-9.295-7.88l10.762-0.438c3.123-0.13,5.885-2.066,7.071-4.959L253.014,1043.529
		L253.014,1043.529z"/>
	<path style="fill:#569266;" d="M253.364,1141.595l-9.187,11.437l59.458,74.063h18.375L253.364,1141.595L253.364,1141.595z
		 M277.635,1227.094c-4.419,0.006-7.996,3.594-7.99,8.012c0.003,1.906,0.686,3.749,1.927,5.197l63.313,73.729h18.375l-63.313-73.729
		c-2.876-3.354-2.488-8.405,0.867-11.281c1.447-1.241,3.29-1.925,5.196-1.927H277.635z M288.302,1314.032
		c-4.419-0.009-8.008,3.565-8.018,7.984c-0.004,1.964,0.714,3.859,2.018,5.328l73.583,83.313h18.375l-73.583-83.313
		c-2.934-3.305-2.633-8.361,0.671-11.294c1.468-1.305,3.365-2.022,5.329-2.018H288.302L288.302,1314.032z"/>
</g>
</svg>